<?xml version="1.0" standalone="no"?>
<!DOCTYPE svg PUBLIC "-//W3C//DTD SVG 20010904//EN"
 "http://www.w3.org/TR/2001/REC-SVG-20010904/DTD/svg10.dtd">
<svg version="1.0" xmlns="http://www.w3.org/2000/svg"
 width="2364.000000pt" height="1826.000000pt" viewBox="0 0 2364.000000 1826.000000"
 preserveAspectRatio="xMidYMid meet">
<metadata>
Created by potrace 1.16, written by Peter Selinger 2001-2019
</metadata>
<g transform="translate(0.000000,1826.000000) scale(0.100000,-0.100000)"
fill="#000000" stroke="none">
<path d="M12998 14119 c-736 -765 -1338 -1394 -1338 -1398 0 -10 428 -421 439
-421 5 0 511 522 1125 1160 615 638 1120 1160 1124 1159 4 0 965 -984 2135
-2185 l2128 -2184 431 0 431 0 -84 88 c-288 300 -5042 5172 -5047 5172 -4 0
-609 -626 -1344 -1391z"/>
<path d="M8625 13250 l-1090 -1128 -3 274 -2 274 -360 0 -360 0 0 -649 0 -649
-421 -436 -422 -436 -1181 0 -1181 -1 -139 -114 c-77 -63 -144 -119 -150 -125
-7 -7 501 -10 1631 -10 l1641 0 1562 1616 c859 888 1566 1614 1570 1612 5 -2
680 -715 1500 -1586 1291 -1371 1490 -1587 1490 -1612 l0 -30 2731 0 c1501 0
2728 4 2725 8 -3 5 -70 61 -149 125 l-144 117 -2246 0 -2245 0 -1827 1940
c-1005 1067 -1830 1940 -1833 1940 -4 -1 -497 -509 -1097 -1130z"/>
<path d="M6670 12885 l0 -125 500 0 500 0 0 125 0 125 -500 0 -500 0 0 -125z"/>
<path d="M14205 12904 c-88 -9 -185 -38 -284 -86 -90 -43 -116 -62 -186 -132
-115 -115 -176 -238 -194 -388 l-7 -58 743 0 744 0 -6 48 c-26 199 -137 375
-306 488 -143 94 -338 144 -504 128z"/>
<path d="M13537 12083 c-4 -3 -7 -163 -7 -355 l0 -348 335 0 335 0 0 355 0
355 -328 0 c-181 0 -332 -3 -335 -7z"/>
<path d="M14347 12083 c-4 -3 -7 -163 -7 -355 l0 -348 340 0 340 0 0 355 0
355 -333 0 c-184 0 -337 -3 -340 -7z"/>
<path d="M9615 11769 c-241 -37 -448 -179 -555 -381 -33 -61 -70 -191 -70
-245 l0 -33 740 0 740 0 0 28 c0 49 -38 181 -71 245 -89 175 -247 302 -452
361 -100 29 -240 40 -332 25z"/>
<path d="M8990 10605 l0 -355 335 0 335 0 0 355 0 355 -335 0 -335 0 0 -355z"/>
<path d="M9800 10605 l0 -355 335 0 335 0 0 355 0 355 -335 0 -335 0 0 -355z"/>
<path d="M17705 9507 c-40 -60 -84 -151 -147 -304 -49 -120 -272 -663 -495
-1208 -223 -544 -419 -1016 -436 -1048 -37 -71 -85 -113 -153 -133 -41 -12
-59 -24 -88 -61 l-35 -46 44 -33 44 -34 268 0 269 0 43 44 42 43 -50 40 c-27
22 -71 46 -96 53 -99 28 -109 101 -38 275 47 113 106 259 131 324 23 59 56 81
133 91 140 17 278 -14 587 -131 401 -153 570 -203 724 -216 36 -3 71 -9 78
-13 20 -12 92 -194 97 -246 5 -46 3 -53 -18 -68 -13 -9 -41 -21 -61 -27 -40
-10 -138 -67 -138 -79 0 -4 26 -27 58 -51 l57 -44 306 1 305 1 47 27 c26 16
47 31 46 34 0 4 -13 27 -28 52 -23 38 -35 48 -83 63 -68 22 -126 74 -163 148
-15 28 -258 592 -541 1252 -284 661 -525 1215 -537 1231 -16 24 -92 121 -113
144 -1 2 -28 -34 -59 -81z m379 -1288 c208 -484 375 -883 372 -886 -19 -19
-246 45 -611 171 -426 148 -462 158 -605 165 l-126 6 291 712 c159 392 292
713 295 713 3 0 176 -396 384 -881z"/>
<path d="M11650 9574 c-14 -2 -56 -9 -95 -15 -159 -26 -369 -116 -520 -224
-102 -73 -250 -218 -321 -317 -113 -158 -201 -369 -240 -583 -15 -81 -19 -148
-19 -350 1 -220 3 -262 23 -352 61 -282 188 -518 382 -714 191 -192 406 -308
675 -364 185 -38 483 -38 695 0 488 89 824 379 1016 877 214 553 79 1259 -315
1648 -208 207 -456 323 -801 375 -101 15 -428 28 -480 19z m411 -160 c312 -53
572 -232 730 -500 89 -150 170 -390 199 -587 15 -101 15 -319 0 -427 -33 -244
-130 -516 -240 -681 -96 -142 -266 -284 -418 -349 -273 -116 -627 -113 -888 9
-117 55 -184 101 -278 192 -133 127 -218 263 -277 442 -39 117 -123 541 -109
545 6 2 10 46 10 109 0 186 43 411 110 574 199 482 672 756 1161 673z"/>
<path d="M14728 9555 c-339 -48 -593 -174 -808 -401 -185 -196 -300 -418 -362
-704 -20 -94 -22 -132 -22 -360 0 -275 11 -361 70 -540 111 -336 359 -621 677
-776 353 -172 857 -206 1322 -88 207 53 455 143 497 181 54 48 53 36 58 630 6
629 -1 585 96 633 27 14 69 40 92 59 l41 34 -30 38 -31 39 -358 0 -359 0 31
-70 c29 -65 34 -71 72 -81 71 -19 97 -38 119 -87 22 -46 22 -58 25 -579 3
-529 3 -531 -18 -551 -32 -30 -313 -105 -491 -132 -397 -58 -729 -8 -961 146
-352 234 -562 743 -519 1261 27 313 99 553 224 738 173 258 428 414 744 456
53 7 157 9 267 6 153 -4 197 -9 281 -31 256 -67 441 -213 558 -441 14 -28 63
-87 111 -135 l86 -85 0 258 c0 326 -4 335 -154 402 -155 69 -375 133 -571 166
-157 27 -541 35 -687 14z"/>
<path d="M1955 9538 c-29 -95 -29 -89 1 -114 16 -13 49 -31 74 -40 25 -10 55
-26 67 -37 48 -43 48 -43 4 -1258 -23 -624 -47 -1152 -52 -1173 -14 -50 -56
-90 -111 -104 -28 -7 -57 -25 -83 -52 l-40 -41 30 -25 c71 -59 55 -57 339 -57
144 0 270 4 278 9 9 5 35 26 58 47 51 47 54 43 -107 122 -61 30 -121 67 -132
81 -48 60 -48 94 -6 1294 25 694 28 770 34 770 3 0 222 -503 486 -1117 264
-614 492 -1135 507 -1158 16 -22 40 -55 56 -73 l28 -33 46 58 c51 62 33 19
753 1795 142 351 260 636 261 635 1 -1 12 -223 23 -492 46 -1079 59 -1657 39
-1695 -8 -15 -40 -38 -78 -57 -38 -19 -77 -47 -94 -69 l-30 -36 42 -39 41 -39
303 0 c332 0 333 0 358 59 19 48 -11 91 -80 113 -104 34 -117 63 -130 303 -16
271 -80 1730 -87 1955 -5 182 -4 210 11 242 17 35 65 68 98 68 17 0 41 24 101
105 l45 60 -249 3 c-269 3 -291 -1 -324 -51 -8 -13 -105 -248 -216 -523 -319
-792 -750 -1858 -759 -1873 -4 -8 -42 68 -102 210 -52 123 -279 660 -504 1193
-339 804 -415 976 -445 1008 l-36 38 -207 0 c-156 0 -208 -3 -211 -12z"/>
<path d="M5308 9520 c-27 -17 -48 -33 -48 -36 0 -8 53 -77 70 -91 8 -7 24 -13
35 -13 32 0 82 -36 102 -72 17 -31 18 -96 18 -1218 0 -1353 10 -1221 -93
-1267 -31 -14 -76 -42 -98 -63 l-42 -39 50 -42 50 -42 294 0 293 0 56 42 56
42 -57 45 c-32 24 -64 44 -71 44 -33 0 -71 31 -89 72 -18 41 -19 94 -22 1196
-1 764 1 1166 8 1191 15 56 44 87 99 106 33 11 58 28 80 55 l32 40 -21 40 -20
40 -318 0 -317 0 -47 -30z"/>
<path d="M7498 9511 l-41 -38 32 -41 c26 -31 44 -43 81 -52 51 -12 81 -37 102
-85 17 -39 25 -2264 8 -2354 -14 -76 -36 -102 -104 -126 -43 -15 -65 -30 -87
-59 -16 -22 -29 -43 -29 -47 0 -4 19 -21 42 -38 l42 -31 302 0 301 0 39 31
c22 17 41 32 43 34 11 12 -69 89 -122 117 -99 53 -98 49 -95 393 l3 290 27 46
c34 58 87 106 174 157 151 90 360 154 854 262 342 76 508 134 668 236 l52 34
0 -646 c0 -467 -3 -658 -12 -686 -14 -46 -54 -84 -106 -98 -22 -5 -54 -27 -77
-50 l-40 -41 45 -39 c43 -37 49 -39 140 -46 52 -4 187 -4 298 -1 l204 5 46 33
c26 18 49 34 51 35 12 10 -72 84 -128 114 -44 23 -71 45 -81 65 -13 26 -15
181 -15 1210 0 1077 1 1183 16 1210 24 42 48 62 94 74 28 7 52 24 76 54 l36
43 -43 37 -42 37 -307 0 -307 0 -29 -31 c-50 -54 -32 -97 61 -144 71 -36 93
-56 109 -97 6 -16 11 -172 12 -396 1 -348 0 -372 -19 -413 -28 -64 -74 -102
-182 -153 -202 -94 -382 -151 -705 -221 -270 -59 -418 -98 -528 -141 -106 -41
-228 -103 -294 -150 l-48 -34 -3 727 c-2 401 0 747 3 770 7 51 46 94 101 111
22 7 58 30 82 50 l43 38 -45 42 -46 42 -305 0 -306 0 -41 -39z"/>
<path d="M19450 9524 c-105 -62 -103 -50 -13 -108 44 -28 94 -59 111 -68 24
-13 35 -29 49 -75 17 -54 18 -129 18 -1203 0 -1054 -1 -1148 -17 -1182 -18
-41 -69 -78 -106 -78 -33 0 -82 -52 -82 -86 0 -17 11 -39 27 -56 l27 -28 314
0 314 0 44 32 c24 17 44 35 44 38 0 20 -99 98 -131 104 -40 7 -72 36 -89 81
-10 25 -17 622 -8 630 2 2 152 4 333 6 323 4 331 4 370 -18 47 -24 95 -74 182
-188 72 -95 315 -369 452 -510 137 -141 234 -186 404 -184 84 0 218 20 218 32
0 5 -51 45 -113 89 -147 106 -348 308 -558 558 -90 107 -181 213 -202 236
l-39 40 95 38 c249 98 460 308 546 543 52 144 63 225 57 422 -6 204 -23 281
-92 428 -54 115 -91 170 -174 257 -117 121 -252 202 -416 248 -79 22 -90 22
-800 25 l-720 3 -45 -26z m1477 -161 c89 -30 142 -64 206 -133 66 -71 96 -120
148 -240 123 -284 122 -573 -1 -862 -85 -198 -228 -335 -412 -393 -112 -36
-266 -46 -613 -43 l-300 3 -3 835 c-1 459 0 841 3 849 4 11 84 12 458 9 422
-4 456 -6 514 -25z"/>
<path d="M12002 5598 c3 -529 3 -533 25 -575 54 -101 180 -147 306 -112 33 9
37 13 37 43 0 19 -3 47 -6 64 -6 28 -9 30 -31 21 -36 -13 -100 -11 -132 5 -56
29 -56 27 -59 579 l-3 507 -70 0 -70 0 3 -532z"/>
<path d="M10503 6055 c-170 -46 -285 -168 -322 -343 -7 -34 -11 -189 -11 -427
l0 -375 70 0 70 0 0 165 0 165 340 0 340 0 0 -165 0 -165 76 0 76 0 -4 383
c-4 321 -7 391 -22 441 -64 223 -224 337 -471 335 -49 0 -114 -7 -142 -14z
m323 -160 c118 -61 153 -142 161 -372 l6 -153 -343 0 -343 0 6 153 c6 168 17
220 65 290 60 86 140 118 288 114 90 -2 108 -6 160 -32z"/>
<path d="M11402 5518 c3 -420 4 -456 22 -488 45 -85 127 -130 236 -130 63 0
148 26 181 55 17 16 17 19 -8 70 l-27 54 -41 -25 c-48 -28 -120 -32 -164 -10
-52 27 -55 48 -59 338 l-3 267 128 3 128 3 3 63 3 62 -131 0 -130 0 0 95 0 95
-70 0 -71 0 3 -452z"/>
<path d="M14554 5956 c-3 -7 -4 -204 -1 -437 2 -302 7 -435 16 -462 16 -49 64
-103 115 -129 83 -42 238 -31 306 21 l25 20 -28 56 -27 56 -30 -22 c-40 -30
-125 -37 -169 -14 -57 29 -61 54 -61 344 l0 260 128 3 127 3 3 63 3 62 -131 0
-130 0 0 95 0 95 -70 0 c-51 0 -72 -4 -76 -14z"/>
<path d="M8005 5777 c-238 -61 -369 -293 -310 -546 9 -35 28 -86 42 -114 32
-58 115 -137 175 -166 139 -66 319 -67 449 -1 45 23 119 87 119 103 0 5 -18
29 -39 52 l-39 43 -28 -29 c-16 -16 -53 -42 -84 -56 -47 -24 -68 -27 -145 -27
-107 0 -166 22 -232 86 -37 37 -72 94 -62 102 2 1 155 32 339 67 l335 64 3 39
c2 21 -6 69 -17 106 -36 116 -130 219 -241 261 -68 26 -195 34 -265 16z m185
-127 c65 -18 127 -66 159 -122 17 -29 31 -60 31 -68 0 -13 -55 -27 -272 -68
-150 -29 -277 -52 -281 -52 -5 0 -6 24 -2 53 9 73 57 169 102 203 72 55 180
77 263 54z"/>
<path d="M9032 5775 c-66 -19 -103 -37 -147 -76 l-35 -31 0 56 0 56 -75 0 -75
0 0 -435 0 -435 75 0 75 0 0 253 c0 271 6 319 53 388 12 18 44 47 71 64 43 26
61 30 133 34 131 5 197 -29 240 -124 16 -35 18 -77 21 -327 l3 -288 70 0 69 0
0 294 c0 266 -2 300 -20 359 -27 87 -87 154 -171 192 -77 34 -204 43 -287 20z"/>
<path d="M12681 5775 c-116 -33 -222 -118 -270 -219 -81 -167 -54 -387 64
-514 164 -177 435 -192 608 -34 l27 26 0 -62 0 -62 70 0 70 0 0 435 0 435 -75
0 -74 0 -3 -55 -3 -55 -43 35 c-92 72 -254 103 -371 70z m266 -151 c101 -49
157 -149 157 -280 0 -73 -4 -89 -34 -150 -41 -81 -94 -126 -177 -150 -145 -42
-293 27 -357 165 -29 65 -29 207 0 272 72 157 253 221 411 143z"/>
<path d="M13853 5780 c-62 -13 -124 -43 -166 -80 l-37 -32 0 56 0 56 -70 0
-70 0 0 -435 0 -435 70 0 70 0 0 239 c0 131 5 263 10 292 14 74 56 137 113
173 41 25 61 30 131 34 127 7 192 -24 239 -112 21 -39 22 -54 25 -333 l3 -293
75 0 74 0 0 253 c0 284 -9 369 -46 444 -31 64 -109 136 -172 158 -56 20 -190
28 -249 15z"/>
<path d="M15363 5775 c-81 -22 -151 -62 -200 -112 -181 -187 -157 -527 49
-679 85 -62 142 -79 268 -79 94 0 111 3 165 28 33 15 79 47 103 70 l42 41 0
-67 0 -67 70 0 70 0 0 435 0 435 -75 0 -75 0 0 -61 0 -61 -46 41 c-25 22 -71
50 -103 62 -73 27 -197 34 -268 14z m252 -145 c55 -26 109 -81 137 -139 19
-39 23 -62 23 -146 0 -85 -4 -107 -24 -149 -31 -62 -82 -113 -140 -139 -68
-31 -189 -30 -255 2 -62 31 -113 82 -139 140 -25 57 -34 172 -18 238 24 97
105 183 200 210 60 17 162 9 216 -17z"/>
<path d="M1737 5546 c-92 -62 -170 -116 -174 -119 -3 -4 1288 -7 2870 -7
l2877 0 0 120 0 120 -2702 -1 -2703 0 -168 -113z"/>
<path d="M16430 5540 l0 -120 2882 0 2881 0 -176 120 -177 120 -2705 0 -2705
0 0 -120z"/>
</g>
</svg>
